# 3ds Max Wavefront OBJ Exporter v0.97b - (c)2007 guruware
# 创建的文件:14.01.2019 04:16:11

mtllib woodhouse.mtl

#
# object bsth_nc_pj_003
#

v  -0.38 0.23 -0.15
v  -0.34 0.23 -0.15
v  -0.34 0.23 0.17
v  -0.38 0.23 0.17
v  -0.38 0.25 -0.15
v  -0.38 0.25 0.17
v  -0.34 0.25 0.17
v  -0.34 0.25 -0.15
v  -0.37 0.24 0.09
v  -0.34 0.24 0.09
v  -0.34 -0.01 0.09
v  -0.37 -0.01 0.09
v  -0.37 0.24 0.12
v  -0.37 -0.01 0.12
v  -0.34 -0.01 0.12
v  -0.34 0.24 0.12
v  -0.37 0.13 -0.14
v  -0.34 0.13 -0.14
v  -0.34 0.10 0.10
v  -0.37 0.10 0.10
v  -0.37 0.15 -0.13
v  -0.37 0.12 0.11
v  -0.34 0.12 0.11
v  -0.34 0.15 -0.13
v  -0.38 0.75 -0.17
v  -0.38 0.75 -0.12
v  -0.34 0.75 -0.12
v  -0.34 0.75 -0.17
v  -0.38 -0.01 -0.17
v  -0.38 -0.01 -0.12
v  -0.34 -0.01 -0.12
v  -0.34 -0.01 -0.17
v  -0.34 0.75 -0.13
v  0.34 0.75 -0.13
v  0.34 0.75 -0.17
v  -0.34 0.73 -0.13
v  0.34 0.73 -0.13
v  -0.34 0.73 -0.17
v  0.34 0.73 -0.17
v  0.34 0.16 -0.15
v  0.38 0.16 -0.15
v  0.38 0.16 0.16
v  0.34 0.16 0.16
v  0.34 0.18 -0.15
v  0.34 0.18 0.16
v  0.38 0.18 0.16
v  0.38 0.18 -0.15
v  0.34 0.17 0.06
v  0.37 0.17 0.06
v  0.37 -0.01 0.06
v  0.34 -0.01 0.06
v  0.34 0.17 0.09
v  0.34 -0.01 0.09
v  0.37 -0.01 0.09
v  0.37 0.17 0.09
v  0.35 0.08 -0.15
v  0.37 0.08 -0.15
v  0.37 0.06 0.06
v  0.35 0.06 0.06
v  0.35 0.10 -0.14
v  0.35 0.07 0.07
v  0.37 0.07 0.07
v  0.37 0.10 -0.14
v  0.34 0.75 -0.12
v  0.38 0.75 -0.12
v  0.38 0.75 -0.17
v  0.34 -0.01 -0.17
v  0.34 -0.01 -0.12
v  0.38 -0.01 -0.12
v  0.38 -0.01 -0.17
v  -0.34 0.51 -0.13
v  -0.34 0.01 -0.13
v  0.34 0.01 -0.13
v  0.34 0.51 -0.13
v  -0.34 0.01 -0.16
v  0.34 0.01 -0.16
v  -0.34 0.51 -0.16
v  0.34 0.51 -0.16
v  -0.38 0.72 -0.14
v  -0.34 0.72 -0.14
v  -0.34 0.72 0.38
v  -0.38 0.72 0.38
v  -0.38 0.74 -0.14
v  -0.38 0.74 0.38
v  -0.34 0.74 0.38
v  -0.34 0.74 -0.14
v  0.38 0.72 -0.14
v  0.38 0.72 0.38
v  0.34 0.72 0.38
v  0.34 0.72 -0.14
v  0.38 0.74 -0.14
v  0.34 0.74 -0.14
v  0.34 0.74 0.38
v  0.38 0.74 0.38
v  -0.35 0.72 0.03
v  -0.37 0.72 0.03
v  -0.37 0.54 -0.14
v  -0.35 0.54 -0.14
v  -0.35 0.74 0.01
v  -0.35 0.55 -0.15
v  -0.37 0.55 -0.15
v  -0.37 0.74 0.01
v  0.35 0.72 0.03
v  0.35 0.54 -0.14
v  0.37 0.54 -0.14
v  0.37 0.72 0.03
v  0.35 0.74 0.01
v  0.37 0.74 0.01
v  0.37 0.55 -0.15
v  0.35 0.55 -0.15
v  0.37 0.60 0.37
v  0.37 0.73 0.36
v  -0.37 0.73 0.36
v  -0.37 0.60 0.37
v  0.00 0.69 0.11
v  -0.37 0.73 -0.14
v  -0.35 0.74 0.35
v  -0.35 0.74 0.37
v  0.35 0.74 0.37
v  0.35 0.74 0.35
v  -0.35 0.73 0.37
v  0.35 0.73 0.37
v  -0.35 0.73 0.35
v  0.35 0.73 0.35
v  0.37 0.73 -0.14
# 125 vertices

vn -0.71 -0.71 -0.00
vn 0.71 -0.71 0.00
vn 0.58 -0.58 0.58
vn -0.58 -0.58 0.58
vn -0.71 0.71 0.00
vn -0.58 0.58 0.58
vn 0.58 0.58 0.58
vn 0.71 0.71 0.00
vn -0.71 0.00 -0.71
vn 0.71 0.00 -0.71
vn -0.71 0.00 0.71
vn 0.71 0.00 0.71
vn -0.69 -0.72 -0.10
vn 0.69 -0.72 -0.10
vn 0.73 -0.68 -0.09
vn -0.73 -0.68 -0.09
vn -0.73 0.68 0.09
vn -0.69 0.72 0.10
vn 0.69 0.72 0.10
vn 0.73 0.68 0.09
vn -0.58 0.58 -0.58
vn 0.58 0.58 -0.58
vn -0.71 -0.00 -0.71
vn -0.71 -0.00 0.71
vn 0.00 0.71 -0.71
vn 0.00 0.71 0.71
vn -0.00 -0.71 0.71
vn -0.00 -0.71 -0.71
vn -0.68 -0.73 -0.09
vn 0.68 -0.73 -0.09
vn 0.73 -0.68 -0.08
vn -0.73 -0.68 -0.08
vn -0.73 0.68 0.08
vn -0.68 0.73 0.09
vn 0.68 0.73 0.09
vn 0.73 0.68 0.08
vn 0.71 -0.00 -0.71
vn 0.00 -0.71 0.71
vn -0.00 0.71 -0.71
vn -0.71 0.71 -0.00
vn 0.69 -0.48 0.54
vn -0.69 -0.48 0.54
vn -0.73 -0.46 0.51
vn 0.73 -0.46 0.51
vn 0.73 0.46 -0.51
vn 0.69 0.48 -0.54
vn -0.69 0.48 -0.54
vn -0.73 0.46 -0.51
vn -0.00 0.08 1.00
vn -0.05 0.76 0.65
vn 0.05 0.76 0.65
vn -0.00 1.00 -0.00
vn 0.07 1.00 0.07
vn -0.07 1.00 0.07
# 54 vertex normals

vt 0.81 0.86 0.00
vt 0.74 0.86 0.00
vt 0.74 0.01 0.00
vt 0.81 0.01 0.00
vt 0.87 0.01 0.00
vt 0.87 0.86 0.00
vt 0.76 0.87 0.00
vt 0.86 0.87 0.00
vt 0.86 0.98 0.00
vt 0.76 0.98 0.00
vt 0.94 0.00 0.00
vt 0.88 0.00 0.00
vt 0.88 0.99 0.00
vt 0.94 0.99 0.00
vt 1.00 0.00 0.00
vt 1.00 0.99 0.00
vt 0.00 0.53 0.00
vt 0.00 0.00 0.00
vt 0.73 0.00 0.00
vt 0.73 0.53 0.00
vt 0.80 0.01 0.00
vt 0.76 0.01 0.00
vt 0.76 0.85 0.00
vt 0.80 0.85 0.00
vt 0.73 0.54 0.00
vt 0.73 0.63 0.00
vt 0.01 0.63 0.00
vt 0.01 0.54 0.00
vt 0.37 0.81 0.00
vt 0.01 1.00 0.00
vt 0.73 1.00 0.00
# 31 texture coords

o bsth_nc_pj_003
g bsth_nc_pj_003
usemtl bsth_nc_pj_003
s 2
f 1/1/1 2/2/2 3/3/3 4/4/4 
s 4
f 5/2/5 6/3/6 7/4/7 8/1/8 
s 8
f 1/1/1 4/4/4 6/5/6 5/6/5 
s 16
f 4/7/4 3/8/3 7/9/7 6/10/6 
s 32
f 3/5/3 2/6/2 8/1/8 7/4/7 
s 2
f 9/1/9 10/2/10 11/3/10 12/4/9 
s 4
f 13/2/11 14/3/11 15/4/12 16/1/12 
s 8
f 9/1/9 12/4/9 14/5/11 13/6/11 
s 32
f 11/5/10 10/6/10 16/1/12 15/4/12 
s 2
f 17/1/13 18/2/14 19/3/15 20/4/16 
s 4
f 21/2/17 22/3/18 23/4/19 24/1/20 
s 8
f 17/1/13 20/4/16 22/5/18 21/6/17 
s 32
f 19/5/15 18/6/14 24/1/20 23/4/19 
s 4
f 25/7/21 26/8/6 27/9/7 28/10/22 
s 8
f 29/11/23 30/12/24 26/13/6 25/14/21 
s 16
f 30/15/24 31/11/12 27/14/7 26/16/6 
s 32
f 31/11/12 32/12/10 28/13/22 27/14/7 
s 64
f 32/15/10 29/11/23 25/14/21 28/16/22 
s 8
f 28/14/25 33/13/26 34/12/26 35/11/25 
s 16
f 33/16/26 36/14/27 37/11/27 34/15/26 
s 32
f 36/14/27 38/13/28 39/12/28 37/11/27 
s 64
f 38/16/28 28/14/25 35/11/25 39/15/28 
s 2
f 40/1/1 41/2/2 42/3/3 43/4/4 
s 4
f 44/2/5 45/3/6 46/4/7 47/1/8 
s 8
f 40/1/1 43/4/4 45/5/6 44/6/5 
s 16
f 43/7/4 42/8/3 46/9/7 45/10/6 
s 32
f 42/5/3 41/6/2 47/1/8 46/4/7 
s 2
f 48/1/9 49/2/10 50/3/10 51/4/9 
s 4
f 52/2/11 53/3/11 54/4/12 55/1/12 
s 8
f 48/1/9 51/4/9 53/5/11 52/6/11 
s 32
f 50/5/10 49/6/10 55/1/12 54/4/12 
s 2
f 56/1/29 57/2/30 58/3/31 59/4/32 
s 4
f 60/2/33 61/3/34 62/4/35 63/1/36 
s 8
f 56/1/29 59/4/32 61/5/34 60/6/33 
s 32
f 58/5/31 57/6/30 63/1/36 62/4/35 
s 4
f 35/7/21 64/8/6 65/9/7 66/10/22 
s 8
f 67/11/9 68/12/11 64/13/6 35/14/21 
s 16
f 68/15/11 69/11/12 65/14/7 64/16/6 
s 32
f 69/11/12 70/12/37 66/13/22 65/14/7 
s 64
f 70/15/37 67/11/9 35/14/21 66/16/22 
s 8
f 71/17/26 72/18/38 73/19/38 74/20/26 
s 16
f 72/21/38 75/22/28 76/23/28 73/24/38 
s 32
f 75/18/28 77/17/39 78/20/39 76/19/28 
s 64
f 77/21/39 71/22/26 74/23/26 78/24/39 
s 2
f 79/13/1 80/14/2 81/11/3 82/12/4 
s 4
f 83/14/40 84/11/6 85/12/7 86/13/8 
s 8
f 79/14/1 82/11/4 84/12/6 83/13/40 
s 16
f 82/7/4 81/8/3 85/9/7 84/10/6 
s 32
f 81/12/3 80/13/2 86/14/8 85/11/7 
s 2
f 87/13/2 88/12/3 89/11/4 90/14/1 
s 4
f 91/14/8 92/13/40 93/12/6 94/11/7 
s 8
f 87/14/2 91/13/8 94/12/7 88/11/3 
s 16
f 88/7/3 94/10/7 93/9/6 89/8/4 
s 32
f 89/12/4 93/11/6 92/14/40 90/13/1 
s 2
f 95/1/41 96/2/42 97/3/43 98/4/44 
s 4
f 99/2/45 100/3/46 101/4/47 102/1/48 
s 8
f 95/1/41 98/4/44 100/5/46 99/6/45 
s 32
f 97/5/43 96/6/42 102/1/48 101/4/47 
s 2
f 103/1/42 104/4/43 105/3/44 106/2/41 
s 4
f 107/2/48 108/1/45 109/4/46 110/3/47 
s 8
f 103/1/42 107/6/48 110/5/47 104/4/43 
s 32
f 105/5/44 109/4/46 108/1/45 106/6/41 
s 1
f 111/25/49 112/26/50 113/27/51 114/28/49 
s off
f 113/27/51 115/29/52 116/30/53 
s 8
f 117/14/25 118/13/26 119/12/26 120/11/25 
s 16
f 118/16/26 121/14/27 122/11/27 119/15/26 
s 32
f 121/14/27 123/13/28 124/12/28 122/11/27 
s 64
f 123/16/28 117/14/25 120/11/25 124/15/28 
s off
f 112/26/50 125/31/54 115/29/52 
f 113/27/51 112/26/50 115/29/52 
f 125/31/54 116/30/53 115/29/52 
# 67 polygons - 4 triangles

