# 3ds Max Wavefront OBJ Exporter v0.97b - (c)2007 guruware
# 创建的文件:13.01.2019 16:16:26

mtllib ren.mtl

#
# object bsth_bc_pj_004
#

v  0.11 -0.12 -0.00
v  -0.00 -0.12 -0.11
v  -0.00 5.31 -0.11
v  0.11 5.31 -0.00
v  -0.11 -0.12 0.00
v  -0.11 5.31 0.00
v  0.00 -0.12 0.11
v  0.00 5.31 0.11
v  0.81 4.01 -0.00
v  0.42 4.01 -0.68
v  0.28 5.85 -0.43
v  0.53 5.85 -0.00
v  -0.36 4.01 -0.68
v  -0.22 5.85 -0.43
v  -0.75 4.01 0.00
v  -0.46 5.85 0.00
v  -0.36 4.01 0.68
v  -0.22 5.85 0.43
v  0.42 4.01 0.68
v  0.28 5.85 0.43
v  0.28 8.48 -0.44
v  0.37 9.18 -0.59
v  0.72 9.18 -0.00
v  0.54 8.48 -0.00
v  -0.22 8.48 -0.44
v  -0.31 9.18 -0.59
v  -0.47 8.48 0.00
v  -0.65 9.18 0.00
v  -0.22 8.48 0.44
v  -0.31 9.18 0.59
v  0.28 8.48 0.44
v  0.37 9.18 0.59
v  0.26 9.82 -0.40
v  0.49 9.82 -0.00
v  -0.20 9.82 -0.40
v  -0.43 9.82 0.00
v  -0.20 9.82 0.40
v  0.26 9.82 0.40
v  0.03 9.94 -0.00
v  -0.33 7.33 -0.63
v  0.40 7.33 -0.63
v  -0.66 7.35 0.32
v  -0.33 7.33 0.63
v  -0.66 7.71 0.32
v  0.40 7.33 0.63
v  0.71 7.70 0.36
v  0.71 7.36 0.36
v  0.70 7.39 -0.36
v  0.70 7.67 -0.36
v  -0.66 7.34 -0.29
v  -0.67 7.14 0.00
v  -0.67 7.89 0.00
v  -0.66 7.72 -0.29
v  0.72 7.89 0.00
v  0.72 7.14 0.00
v  1.35 7.68 0.31
v  1.36 7.85 0.00
v  1.35 7.38 0.31
v  1.36 7.18 0.00
v  1.34 7.40 -0.31
v  1.34 7.66 -0.31
v  -1.31 7.86 0.00
v  -1.30 7.69 0.28
v  -1.30 7.70 -0.25
v  -1.30 7.35 -0.25
v  -1.31 7.18 0.00
v  -1.30 7.36 0.28
v  1.99 7.63 0.23
v  2.00 7.75 -0.00
v  1.99 7.42 0.23
v  2.00 7.28 -0.00
v  1.98 7.43 -0.24
v  1.98 7.61 -0.24
v  -1.95 7.75 0.01
v  -1.94 7.64 0.21
v  -1.94 7.65 -0.18
v  -1.94 7.40 -0.18
v  -1.95 7.28 0.01
v  -1.94 7.41 0.21
v  3.03 7.69 0.36
v  3.05 7.87 -0.00
v  3.03 7.36 0.36
v  3.05 7.15 -0.00
v  3.02 7.38 -0.37
v  3.02 7.66 -0.37
v  -3.00 7.87 0.00
v  -2.98 7.70 0.32
v  -2.99 7.71 -0.29
v  -2.98 7.33 -0.29
v  -2.99 7.15 0.00
v  -2.98 7.35 0.32
# 91 vertices

vn 1.00 0.00 -0.00
vn -0.00 0.00 -1.00
vn -1.00 0.00 0.00
vn 0.00 0.00 1.00
vn 0.99 0.15 0.00
vn 0.49 0.15 -0.86
vn 0.50 -0.00 -0.87
vn 1.00 0.01 -0.00
vn -0.49 0.15 -0.86
vn -0.50 -0.00 -0.87
vn -0.99 0.15 0.00
vn -1.00 -0.00 -0.00
vn -0.49 0.15 0.86
vn -0.50 -0.00 0.87
vn 0.49 0.15 0.86
vn 0.50 -0.00 0.87
vn 0.50 -0.03 -0.87
vn 0.50 0.04 -0.87
vn 1.00 0.04 -0.00
vn 1.00 0.03 -0.00
vn -0.50 -0.03 -0.87
vn -0.50 0.04 -0.87
vn -1.00 0.04 -0.00
vn -1.00 0.04 0.00
vn -0.50 -0.03 0.87
vn -0.50 0.04 0.87
vn 0.50 -0.03 0.87
vn 0.50 0.04 0.87
vn 0.37 0.66 -0.65
vn 0.75 0.66 -0.00
vn -0.37 0.66 -0.65
vn -0.75 0.66 0.00
vn -0.37 0.66 0.65
vn 0.37 0.66 0.65
vn 0.00 1.00 0.00
vn -0.38 -0.00 -0.93
vn 0.34 -0.01 -0.94
vn -0.40 -0.49 0.77
vn -0.36 -0.00 0.93
vn 0.08 0.63 0.77
vn 0.34 -0.01 0.94
vn -0.11 0.63 0.77
vn 0.39 -0.50 0.77
vn 0.42 -0.45 -0.79
vn -0.07 0.62 -0.78
vn -0.41 -0.49 -0.77
vn -0.80 -0.61 -0.00
vn -0.70 0.71 -0.00
vn 0.07 0.63 -0.77
vn 0.72 0.70 -0.02
vn 0.80 -0.60 -0.02
vn 0.11 0.51 0.85
vn 0.11 0.99 -0.03
vn 0.11 -0.48 0.87
vn 0.11 -0.99 -0.02
vn 0.10 -0.46 -0.88
vn 0.11 0.49 -0.87
vn -0.11 0.99 -0.01
vn -0.10 0.50 0.86
vn -0.10 0.50 -0.86
vn -0.10 -0.47 -0.88
vn -0.11 -0.99 -0.01
vn -0.10 -0.47 0.88
vn 0.65 0.39 0.65
vn 0.71 0.71 -0.02
vn 0.65 -0.38 0.66
vn 0.69 -0.72 -0.02
vn 0.64 -0.36 -0.68
vn 0.64 0.38 -0.67
vn -0.70 0.72 -0.00
vn -0.65 0.38 0.66
vn -0.65 0.38 -0.66
vn -0.65 -0.36 -0.67
vn -0.69 -0.73 -0.00
vn -0.65 -0.36 0.67
vn -0.13 0.52 0.84
vn -0.13 0.53 0.84
vn -0.12 0.99 -0.02
vn -0.12 0.99 -0.03
vn -0.13 -0.49 0.86
vn -0.13 -0.50 0.86
vn -0.13 -0.99 -0.03
vn -0.13 -0.99 -0.02
vn -0.13 -0.48 -0.87
vn -0.13 0.50 -0.86
vn -0.13 0.51 -0.85
vn 0.12 0.99 -0.00
vn 0.12 0.99 -0.01
vn 0.12 0.52 0.85
vn 0.12 0.51 0.85
vn 0.12 0.50 -0.86
vn 0.12 0.52 -0.85
vn 0.12 -0.47 -0.87
vn 0.12 -0.49 -0.87
vn 0.13 -0.99 -0.01
vn 0.12 -0.48 0.87
vn 0.12 -0.49 0.86
# 97 vertex normals

vt 1.00 0.13 0.50
vt 1.00 0.07 0.00
vt 0.00 0.07 0.00
vt 0.00 0.13 0.50
vt 1.00 0.00 0.50
vt 0.00 0.00 0.50
vt 1.00 0.07 1.00
vt 0.00 0.07 1.00
vt 1.00 1.00 0.50
vt 1.00 0.87 0.00
vt 0.63 0.87 0.07
vt 0.63 1.00 0.50
vt 1.00 0.65 0.00
vt 0.63 0.65 0.07
vt 1.00 0.52 0.50
vt 0.63 0.52 0.50
vt 1.00 0.65 1.00
vt 0.63 0.65 0.93
vt 1.00 0.87 1.00
vt 0.63 0.87 0.93
vt 0.27 0.87 0.13
vt 0.13 0.87 0.00
vt 0.13 1.00 0.50
vt 0.27 1.00 0.50
vt 0.27 0.65 0.13
vt 0.13 0.65 0.00
vt 0.27 0.52 0.50
vt 0.13 0.52 0.50
vt 0.27 0.65 0.87
vt 0.13 0.65 1.00
vt 0.27 0.87 0.87
vt 0.13 0.87 1.00
vt 0.01 0.87 0.16
vt 0.01 1.00 0.50
vt 0.01 0.65 0.16
vt 0.01 0.52 0.50
vt 0.01 0.65 0.84
vt 0.01 0.87 0.84
vt 0.09 0.76 0.50
vt 0.45 0.65 0.10
vt 0.45 0.87 0.10
vt 0.43 0.58 0.67
vt 0.45 0.65 0.90
vt 0.40 0.57 0.65
vt 0.45 0.87 0.90
vt 0.40 0.94 0.68
vt 0.44 0.93 0.69
vt 0.43 0.93 0.29
vt 0.40 0.94 0.31
vt 0.44 0.57 0.35
vt 0.49 0.52 0.50
vt 0.36 0.52 0.50
vt 0.39 0.57 0.36
vt 0.36 1.00 0.50
vt 0.49 0.99 0.50
vt 0.26 0.50 0.50
vt 0.26 0.41 1.00
vt 0.45 0.41 1.00
vt 0.45 0.50 0.50
vt 0.26 0.23 1.00
vt 0.45 0.23 1.00
vt 0.26 0.12 0.50
vt 0.45 0.12 0.50
vt 0.26 0.24 0.01
vt 0.45 0.24 0.01
vt 0.26 0.39 0.01
vt 0.45 0.39 0.01
vt 0.26 0.41 0.94
vt 0.26 0.51 0.50
vt 0.45 0.41 0.94
vt 0.26 0.42 0.11
vt 0.45 0.42 0.11
vt 0.26 0.22 0.10
vt 0.45 0.22 0.10
vt 0.26 0.22 0.94
vt 0.45 0.22 0.94
vt 0.63 0.40 0.99
vt 0.63 0.50 0.50
vt 0.63 0.23 1.00
vt 0.63 0.12 0.50
vt 0.63 0.24 0.00
vt 0.63 0.39 0.00
vt 0.63 0.50 0.51
vt 0.63 0.41 0.94
vt 0.63 0.42 0.11
vt 0.63 0.22 0.10
vt 0.63 0.12 0.51
vt 0.63 0.22 0.94
vt 0.14 0.29 0.00
vt 0.09 0.29 0.00
vt 0.05 0.35 0.00
vt 0.09 0.41 0.00
vt 0.14 0.41 0.00
vt 0.17 0.35 0.00
vt 0.17 0.35 1.00
vt 0.15 0.39 1.00
vt 0.08 0.39 1.00
vt 0.05 0.35 1.00
vt 0.09 0.29 1.00
vt 0.14 0.29 1.00
vt 0.99 0.40 0.99
vt 0.99 0.50 0.50
vt 0.99 0.23 0.99
vt 0.99 0.12 0.50
vt 0.99 0.24 0.00
vt 0.99 0.39 0.00
vt 0.99 0.50 0.51
vt 0.99 0.41 0.94
vt 0.99 0.42 0.11
vt 0.99 0.22 0.11
vt 0.99 0.12 0.51
vt 0.99 0.22 0.94
# 112 texture coords

o bsth_bc_pj_004
g bsth_bc_pj_004
usemtl bsth_bc_pj_004
s 8
f 1/1/1 2/2/2 3/3/2 4/4/1 
f 2/2/2 5/5/3 6/6/3 3/3/2 
f 5/5/3 7/7/4 8/8/4 6/6/3 
f 7/7/4 1/1/1 4/4/1 8/8/4 
s 1
f 9/9/5 10/10/6 11/11/7 12/12/8 
f 10/10/6 13/13/9 14/14/10 11/11/7 
f 13/13/9 15/15/11 16/16/12 14/14/10 
f 15/15/11 17/17/13 18/18/14 16/16/12 
f 17/17/13 19/19/15 20/20/16 18/18/14 
f 19/19/15 9/9/5 12/12/8 20/20/16 
f 21/21/17 22/22/18 23/23/19 24/24/20 
f 25/25/21 26/26/22 22/22/18 21/21/17 
f 27/27/23 28/28/24 26/26/22 25/25/21 
f 29/29/25 30/30/26 28/28/24 27/27/23 
f 31/31/27 32/32/28 30/30/26 29/29/25 
f 24/24/20 23/23/19 32/32/28 31/31/27 
f 22/22/18 33/33/29 34/34/30 23/23/19 
f 26/26/22 35/35/31 33/33/29 22/22/18 
f 28/28/24 36/36/32 35/35/31 26/26/22 
f 30/30/26 37/37/33 36/36/32 28/28/24 
f 32/32/28 38/38/34 37/37/33 30/30/26 
f 23/23/19 34/34/30 38/38/34 32/32/28 
f 34/34/30 33/33/29 39/39/35 
f 33/33/29 35/35/31 39/39/35 
f 35/35/31 36/36/32 39/39/35 
f 36/36/32 37/37/33 39/39/35 
f 37/37/33 38/38/34 39/39/35 
f 38/38/34 34/34/30 39/39/35 
f 14/14/10 40/40/36 41/41/37 11/11/7 
f 42/42/38 43/43/39 44/44/40 
f 20/20/16 45/45/41 43/43/39 18/18/14 
f 40/40/36 25/25/21 21/21/17 41/41/37 
f 45/45/41 31/31/27 29/29/25 43/43/39 
f 46/46/42 45/45/41 47/47/43 
f 48/48/44 41/41/37 49/49/45 
f 50/50/46 40/40/36 14/14/10 16/16/12 51/51/47 
f 42/42/38 51/51/47 16/16/12 18/18/14 43/43/39 
f 43/43/39 29/29/25 27/27/23 52/52/48 44/44/40 
f 53/53/49 52/52/48 27/27/23 25/25/21 40/40/36 
f 50/50/46 53/53/49 40/40/36 
f 46/46/42 54/54/50 24/24/20 31/31/27 45/45/41 
f 45/45/41 20/20/16 12/12/8 55/55/51 47/47/43 
f 48/48/44 55/55/51 12/12/8 11/11/7 41/41/37 
f 41/41/37 21/21/17 24/24/20 54/54/50 49/49/45 
f 54/56/50 46/57/42 56/58/52 57/59/53 
f 46/57/42 47/60/43 58/61/54 56/58/52 
f 47/60/43 55/62/51 59/63/55 58/61/54 
f 55/62/51 48/64/44 60/65/56 59/63/55 
f 48/64/44 49/66/45 61/67/57 60/65/56 
f 49/66/45 54/56/50 57/59/53 61/67/57 
f 44/68/40 52/69/48 62/59/58 63/70/59 
f 52/69/48 53/71/49 64/72/60 62/59/58 
f 53/71/49 50/73/46 65/74/61 64/72/60 
f 50/73/46 51/62/47 66/63/62 65/74/61 
f 51/62/47 42/75/38 67/76/63 66/63/62 
f 42/75/38 44/68/40 63/70/59 67/76/63 
f 56/58/52 68/77/64 69/78/65 57/59/53 
f 58/61/54 70/79/66 68/77/64 56/58/52 
f 59/63/55 71/80/67 70/79/66 58/61/54 
f 60/65/56 72/81/68 71/80/67 59/63/55 
f 61/67/57 73/82/69 72/81/68 60/65/56 
f 57/59/53 69/78/65 73/82/69 61/67/57 
f 62/59/58 74/83/70 75/84/71 63/70/59 
f 64/72/60 76/85/72 74/83/70 62/59/58 
f 65/74/61 77/86/73 76/85/72 64/72/60 
f 66/63/62 78/87/74 77/86/73 65/74/61 
f 67/76/63 79/88/75 78/87/74 66/63/62 
f 63/70/59 75/84/71 79/88/75 67/76/63 
s off
f 68/89/64 70/90/66 71/91/67 72/92/68 73/93/69 69/94/65 
f 74/95/70 76/96/72 77/97/73 78/98/74 79/99/75 75/100/71 
s 1
f 68/77/76 80/101/77 81/102/78 69/78/79 
f 70/79/80 82/103/81 80/101/77 68/77/76 
f 71/80/82 83/104/83 82/103/81 70/79/80 
f 72/81/84 84/105/84 83/104/83 71/80/82 
f 73/82/85 85/106/86 84/105/84 72/81/84 
f 69/78/79 81/102/78 85/106/86 73/82/85 
f 74/83/87 86/107/88 87/108/89 75/84/90 
f 76/85/91 88/109/92 86/107/88 74/83/87 
f 77/86/93 89/110/94 88/109/92 76/85/91 
f 78/87/95 90/111/95 89/110/94 77/86/93 
f 79/88/96 91/112/97 90/111/95 78/87/95 
f 75/84/90 87/108/89 91/112/97 79/88/96 
# 72 polygons - 10 triangles

