# 3ds Max Wavefront OBJ Exporter v0.97b - (c)2007 guruware
# 创建的文件:13.01.2019 16:05:30

mtllib lan.mtl

#
# object bsth_bc_pj_005
#

v  -12.84 7.88 0.13
v  -8.18 8.06 0.13
v  -8.18 8.06 -0.13
v  -12.84 7.88 -0.13
v  -12.84 0.00 0.13
v  12.84 0.00 -0.13
v  6.42 8.10 -0.13
v  12.84 7.88 -0.13
v  0.00 7.71 0.13
v  3.21 7.69 0.13
v  3.21 7.69 -0.13
v  0.00 7.71 -0.13
v  12.84 0.00 0.13
v  -12.84 0.00 -0.13
v  6.42 8.10 0.13
v  12.84 7.88 0.13
v  -8.13 7.84 0.07
v  -8.13 7.84 -0.07
v  -8.11 9.30 -0.09
v  -8.11 9.30 0.09
v  -8.23 7.84 -0.07
v  -8.25 9.30 -0.09
v  -8.23 7.84 0.07
v  -8.25 9.30 0.09
v  -9.21 7.34 0.07
v  -9.21 7.34 -0.07
v  -9.19 8.80 -0.09
v  -9.19 8.80 0.09
v  -9.31 7.33 -0.07
v  -9.33 8.79 -0.09
v  -9.31 7.33 0.07
v  -9.33 8.79 0.09
v  -11.00 7.51 0.07
v  -11.00 7.51 -0.07
v  -10.98 8.97 -0.09
v  -10.98 8.97 0.09
v  -11.10 7.50 -0.07
v  -11.12 8.96 -0.09
v  -11.10 7.50 0.07
v  -11.12 8.96 0.09
v  -4.64 7.54 -0.04
v  -4.78 7.54 -0.06
v  -4.80 9.00 -0.08
v  -4.62 9.00 -0.06
v  -4.80 7.54 0.04
v  -4.82 8.99 0.06
v  -4.66 7.54 0.06
v  -4.64 8.99 0.08
v  -3.36 7.54 -0.04
v  -3.50 7.54 -0.06
v  -3.52 9.00 -0.08
v  -3.34 9.00 -0.06
v  -3.51 7.54 0.04
v  -3.53 8.99 0.06
v  -3.37 7.54 0.06
v  -3.35 8.99 0.08
v  -3.02 7.48 -0.04
v  -3.16 7.48 -0.06
v  -3.18 8.94 -0.08
v  -3.00 8.94 -0.06
v  -3.18 7.48 0.04
v  -3.20 8.94 0.06
v  -3.04 7.48 0.06
v  -3.02 8.94 0.08
v  -0.78 6.97 -0.04
v  -0.92 6.97 -0.06
v  -0.94 8.43 -0.08
v  -0.76 8.43 -0.06
v  -0.93 6.97 0.04
v  -0.96 8.43 0.06
v  -0.79 6.97 0.06
v  -0.78 8.43 0.08
v  2.22 7.44 0.07
v  2.22 7.44 -0.07
v  2.24 8.90 -0.09
v  2.24 8.90 0.09
v  2.12 7.44 -0.07
v  2.10 8.90 -0.09
v  2.12 7.44 0.07
v  2.10 8.90 0.09
v  3.75 7.24 0.07
v  3.75 7.24 -0.07
v  3.76 8.70 -0.09
v  3.76 8.70 0.09
v  3.64 7.24 -0.07
v  3.63 8.70 -0.09
v  3.64 7.24 0.07
v  3.63 8.70 0.09
v  6.46 7.89 0.07
v  6.46 7.89 -0.07
v  6.47 9.35 -0.09
v  6.47 9.35 0.09
v  6.35 7.88 -0.07
v  6.34 9.34 -0.09
v  6.35 7.88 0.07
v  6.34 9.34 0.09
v  7.40 7.89 0.10
v  7.40 7.89 -0.10
v  7.39 10.19 -0.09
v  7.39 10.19 0.09
v  7.25 7.88 -0.10
v  7.25 10.19 -0.09
v  7.25 7.88 0.10
v  7.25 10.19 0.09
v  8.88 7.44 0.07
v  8.88 7.44 -0.07
v  8.89 8.90 -0.09
v  8.89 8.90 0.09
v  8.77 7.44 -0.07
v  8.75 8.90 -0.09
v  8.77 7.44 0.07
v  8.75 8.90 0.09
v  10.40 7.24 0.07
v  10.40 7.24 -0.07
v  10.42 8.70 -0.09
v  10.42 8.70 0.09
v  10.30 7.24 -0.07
v  10.28 8.70 -0.09
v  10.30 7.24 0.07
v  10.28 8.70 0.09
v  10.69 7.89 0.07
v  10.69 7.89 -0.07
v  10.70 9.35 -0.09
v  10.70 9.35 0.09
v  10.58 7.88 -0.07
v  10.57 9.34 -0.09
v  10.58 7.88 0.07
v  10.57 9.34 0.09
# 128 vertices

vn -0.03 0.70 0.72
vn 0.00 0.72 0.70
vn 0.00 0.72 -0.70
vn -0.03 0.70 -0.72
vn 0.00 0.00 1.00
vn 0.00 0.00 -1.00
vn -0.03 0.72 -0.69
vn 0.02 0.70 -0.71
vn 0.02 0.70 0.71
vn -0.04 0.69 0.72
vn -0.04 0.69 -0.72
vn -0.03 0.72 0.69
vn 0.70 -0.02 0.71
vn 0.70 -0.02 -0.71
vn 0.57 0.58 -0.58
vn 0.57 0.58 0.58
vn -0.72 -0.02 -0.70
vn -0.59 0.56 -0.58
vn -0.72 -0.02 0.70
vn -0.59 0.56 0.58
vn 0.80 -0.02 -0.61
vn -0.62 -0.02 -0.78
vn -0.50 0.58 -0.64
vn 0.64 0.58 -0.49
vn -0.78 -0.02 0.63
vn -0.65 0.56 0.51
vn 0.60 -0.02 0.80
vn 0.51 0.56 0.66
vn 0.70 0.00 0.72
vn 0.70 0.00 -0.72
vn 0.57 0.59 -0.57
vn 0.57 0.59 0.57
vn -0.72 0.00 -0.70
vn -0.59 0.57 -0.58
vn -0.72 0.00 0.70
vn -0.59 0.57 0.58
# 36 vertex normals

vt 0.00 0.99 0.00
vt 0.57 0.99 0.00
vt 0.57 1.00 0.00
vt 0.00 1.00 0.00
vt 0.00 0.00 0.00
vt 0.57 1.01 0.00
vt 0.80 1.02 0.00
vt 1.61 0.99 0.00
vt 2.01 0.99 0.00
vt 2.01 1.00 0.00
vt 1.61 1.00 0.00
vt 3.22 0.00 0.00
vt 1.61 0.98 0.00
vt 2.65 1.01 0.00
vt 2.01 0.98 0.00
vt 2.41 0.99 0.00
vt 3.22 0.99 0.00
vt 3.22 1.00 0.00
vt 2.41 1.00 0.00
vt 1.21 0.98 0.00
vt 2.42 1.02 0.00
vt 0.59 0.99 0.00
vt 0.59 1.00 0.00
vt 0.63 0.64 0.71
vt 0.65 0.64 0.71
vt 0.65 0.87 0.70
vt 0.63 0.87 0.70
vt 0.65 0.64 0.70
vt 0.65 0.87 0.71
vt 0.63 0.64 0.70
vt 0.63 0.87 0.71
vt 0.09 0.96 -0.50
vt 0.09 0.99 0.50
vt 0.06 0.99 0.50
vt 0.06 0.96 -0.50
vt 0.67 0.64 0.71
vt 0.69 0.64 0.71
vt 0.69 0.87 0.70
vt 0.67 0.87 0.70
vt 0.69 0.64 0.70
vt 0.69 0.87 0.71
vt 0.67 0.64 0.70
vt 0.67 0.87 0.71
vt 0.68 0.64 0.70
vt 0.68 0.87 0.71
# 45 texture coords

o bsth_bc_pj_005
g bsth_bc_pj_005
usemtl bsth_bc_pj_005
s 1
f 1/1/1 2/2/2 3/3/3 4/4/4 
f 5/5/5 2/6/2 1/4/1 
f 6/5/6 7/7/7 8/4/8 
f 9/8/9 10/9/10 11/10/11 12/11/8 
f 5/5/5 13/12/5 9/13/9 
f 14/12/6 3/14/3 12/13/8 
f 6/5/6 14/12/6 12/13/8 
f 13/12/5 10/15/10 9/13/9 
f 15/16/12 16/17/9 8/18/8 7/19/7 
f 6/5/6 11/20/11 7/7/7 
f 13/12/5 16/18/9 15/21/12 
f 2/22/2 9/8/9 12/11/8 3/23/3 
f 5/5/5 9/13/9 2/6/2 
f 10/9/10 15/16/12 7/19/7 11/10/11 
f 13/12/5 15/21/12 10/15/10 
f 6/5/6 12/13/8 11/20/11 
f 14/12/6 4/18/4 3/14/3 
f 17/24/13 18/25/14 19/26/15 20/27/16 
f 18/24/14 21/28/17 22/29/18 19/27/15 
f 21/30/17 23/28/19 24/29/20 22/31/18 
f 23/30/19 17/25/13 20/26/16 24/31/20 
f 24/32/20 20/33/16 19/34/15 22/35/18 
f 25/36/13 26/37/14 27/38/15 28/39/16 
f 26/36/14 29/40/17 30/41/18 27/39/15 
f 29/42/17 31/40/19 32/41/20 30/43/18 
f 31/44/19 25/37/13 28/38/16 32/45/20 
f 32/32/20 28/33/16 27/34/15 30/35/18 
f 33/36/13 34/37/14 35/38/15 36/39/16 
f 34/36/14 37/40/17 38/41/18 35/39/15 
f 37/42/17 39/40/19 40/41/20 38/43/18 
f 39/44/19 33/37/13 36/38/16 40/45/20 
f 40/32/20 36/33/16 35/34/15 38/35/18 
f 41/36/21 42/37/22 43/38/23 44/39/24 
f 42/36/22 45/40/25 46/41/26 43/39/23 
f 45/42/25 47/40/27 48/41/28 46/43/26 
f 47/44/27 41/37/21 44/38/24 48/45/28 
f 48/32/28 44/33/24 43/34/23 46/35/26 
f 49/36/21 50/37/22 51/38/23 52/39/24 
f 50/36/22 53/40/25 54/41/26 51/39/23 
f 53/42/25 55/40/27 56/41/28 54/43/26 
f 55/44/27 49/37/21 52/38/24 56/45/28 
f 56/32/28 52/33/24 51/34/23 54/35/26 
f 57/36/21 58/37/22 59/38/23 60/39/24 
f 58/36/22 61/40/25 62/41/26 59/39/23 
f 61/42/25 63/40/27 64/41/28 62/43/26 
f 63/44/27 57/37/21 60/38/24 64/45/28 
f 64/32/28 60/33/24 59/34/23 62/35/26 
f 65/36/21 66/37/22 67/38/23 68/39/24 
f 66/36/22 69/40/25 70/41/26 67/39/23 
f 69/42/25 71/40/27 72/41/28 70/43/26 
f 71/44/27 65/37/21 68/38/24 72/45/28 
f 72/32/28 68/33/24 67/34/23 70/35/26 
f 73/24/13 74/25/14 75/26/15 76/27/16 
f 74/24/14 77/28/17 78/29/18 75/27/15 
f 77/30/17 79/28/19 80/29/20 78/31/18 
f 79/30/19 73/25/13 76/26/16 80/31/20 
f 80/32/20 76/33/16 75/34/15 78/35/18 
f 81/36/13 82/37/14 83/38/15 84/39/16 
f 82/36/14 85/40/17 86/41/18 83/39/15 
f 85/42/17 87/40/19 88/41/20 86/43/18 
f 87/44/19 81/37/13 84/38/16 88/45/20 
f 88/32/20 84/33/16 83/34/15 86/35/18 
f 89/36/13 90/37/14 91/38/15 92/39/16 
f 90/36/14 93/40/17 94/41/18 91/39/15 
f 93/42/17 95/40/19 96/41/20 94/43/18 
f 95/44/19 89/37/13 92/38/16 96/45/20 
f 96/32/20 92/33/16 91/34/15 94/35/18 
f 97/24/29 98/25/30 99/26/31 100/27/32 
f 98/24/30 101/28/33 102/29/34 99/27/31 
f 101/30/33 103/28/35 104/29/36 102/31/34 
f 103/30/35 97/25/29 100/26/32 104/31/36 
f 104/32/36 100/33/32 99/34/31 102/35/34 
f 105/36/13 106/37/14 107/38/15 108/39/16 
f 106/36/14 109/40/17 110/41/18 107/39/15 
f 109/42/17 111/40/19 112/41/20 110/43/18 
f 111/44/19 105/37/13 108/38/16 112/45/20 
f 112/32/20 108/33/16 107/34/15 110/35/18 
f 113/36/13 114/37/14 115/38/15 116/39/16 
f 114/36/14 117/40/17 118/41/18 115/39/15 
f 117/42/17 119/40/19 120/41/20 118/43/18 
f 119/44/19 113/37/13 116/38/16 120/45/20 
f 120/32/20 116/33/16 115/34/15 118/35/18 
f 121/24/13 122/25/14 123/26/15 124/27/16 
f 122/24/14 125/28/17 126/29/18 123/27/15 
f 125/30/17 127/28/19 128/29/20 126/31/18 
f 127/30/19 121/25/13 124/26/16 128/31/20 
f 128/32/20 124/33/16 123/34/15 126/35/18 
# 75 polygons - 12 triangles

